HIERARCHY
ROOT hip
{
  OFFSET 0 0 0
  CHANNELS 6 Xposition Yposition Zposition Zrotation Yrotation Xrotation
  JOINT abdomen
  {
    OFFSET 0 20.6881 -0.73152
    CHANNELS 3 Zrotation Xrotation Yrotation
    JOINT chest
    {
      OFFSET 0 11.7043 -0.48768
      CHANNELS 3 Zrotation Xrotation Yrotation
      JOINT neck
      {
        OFFSET 0 22.1894 -2.19456
        CHANNELS 3 Zrotation Xrotation Yrotation
        JOINT head
        {
          OFFSET -0.24384 7.07133 1.2192
          CHANNELS 3 Zrotation Xrotation Yrotation
          JOINT leftEye
          {
            OFFSET 4.14528 8.04674 8.04672
            CHANNELS 3 Zrotation Xrotation Yrotation
            End Site
            {
              OFFSET 1 0 0
            }
          }
          JOINT rightEye
          {
            OFFSET -3.6576 8.04674 8.04672
            CHANNELS 3 Zrotation Xrotation Yrotation
            End Site
            {
              OFFSET 1 0 0
            }
          }
        }
      }
      JOINT rCollar
      {
        OFFSET -2.68224 19.2634 -4.8768
        CHANNELS 3 Zrotation Xrotation Yrotation
        JOINT rShldr
        {
          OFFSET -8.77824 -1.95073 1.46304
          CHANNELS 3 Zrotation Xrotation Yrotation
          JOINT rForeArm
          {
            OFFSET -28.1742 -1.7115 0.48768
            CHANNELS 3 Zrotation Xrotation Yrotation
            JOINT rHand
            {
              OFFSET -22.5879 0.773209 7.07136
              CHANNELS 3 Zrotation Xrotation Yrotation
              JOINT rThumb1
              {
                OFFSET -1.2192 -0.487915 3.41376
                CHANNELS 3 Zrotation Xrotation Yrotation
                JOINT rThumb2
                {
                  OFFSET -3.37035 -0.52449 3.41376
                  CHANNELS 3 Zrotation Xrotation Yrotation
                  End Site
                  {
                    OFFSET -1.78271 -1.18214 1.43049
                  }
                }
              }
              JOINT rIndex1
              {
                OFFSET -7.75947 0.938293 5.60832
                CHANNELS 3 Zrotation Xrotation Yrotation
                JOINT rIndex2
                {
                  OFFSET -2.54057 -0.884171 1.56538
                  CHANNELS 3 Zrotation Xrotation Yrotation
                  End Site
                  {
                    OFFSET -1.62519 -0.234802 1.16502
                  }
                }
              }
              JOINT rMid1
              {
                OFFSET -8.24714 1.18213 3.41376
                CHANNELS 3 Zrotation Xrotation Yrotation
                JOINT rMid2
                {
                  OFFSET -3.10165 -0.590103 1.0647
                  CHANNELS 3 Zrotation Xrotation Yrotation
                  End Site
                  {
                    OFFSET -2.48547 -0.328903 0.83742
                  }
                }
              }
              JOINT rRing1
              {
                OFFSET -8.82822 0.546677 1.51678
                CHANNELS 3 Zrotation Xrotation Yrotation
                JOINT rRing2
                {
                  OFFSET -2.60934 -0.819778 -0.0198488
                  CHANNELS 3 Zrotation Xrotation Yrotation
                  End Site
                  {
                    OFFSET -2.33842 -0.294052 0.168128
                  }
                }
              }
              JOINT rPinky1
              {
                OFFSET -8.27202 -0.0477905 -0.4584
                CHANNELS 3 Zrotation Xrotation Yrotation
                JOINT rPinky2
                {
                  OFFSET -1.82734 -0.647385 -0.700984
                  CHANNELS 3 Zrotation Xrotation Yrotation
                  End Site
                  {
                    OFFSET -1.69225 -0.51767 -0.607171
                  }
                }
              }
            }
          }
        }
      }
      JOINT lCollar
      {
        OFFSET 2.68224 19.2634 -4.8768
        CHANNELS 3 Zrotation Xrotation Yrotation
        JOINT lShldr
        {
          OFFSET 8.77824 -1.95073 1.46304
          CHANNELS 3 Zrotation Xrotation Yrotation
          JOINT lForeArm
          {
            OFFSET 28.1742 -1.7115 0.48768
            CHANNELS 3 Zrotation Xrotation Yrotation
            JOINT lHand
            {
              OFFSET 22.5879 0.773209 7.07136
              CHANNELS 3 Zrotation Xrotation Yrotation
              JOINT lThumb1
              {
                OFFSET 1.2192 -0.487915 3.41376
                CHANNELS 3 Zrotation Xrotation Yrotation
                JOINT lThumb2
                {
                  OFFSET 3.37035 -0.52449 3.41376
                  CHANNELS 3 Zrotation Xrotation Yrotation
                  End Site
                  {
                    OFFSET 1.78271 -1.18214 1.43049
                  }
                }
              }
              JOINT lIndex1
              {
                OFFSET 7.75947 0.938293 5.60832
                CHANNELS 3 Zrotation Xrotation Yrotation
                JOINT lIndex2
                {
                  OFFSET 2.54057 -0.884171 1.56538
                  CHANNELS 3 Zrotation Xrotation Yrotation
                  End Site
                  {
                    OFFSET 1.62519 -0.234802 1.16502
                  }
                }
              }
              JOINT lMid1
              {
                OFFSET 8.24714 1.18213 3.41376
                CHANNELS 3 Zrotation Xrotation Yrotation
                JOINT lMid2
                {
                  OFFSET 3.10165 -0.590103 1.0647
                  CHANNELS 3 Zrotation Xrotation Yrotation
                  End Site
                  {
                    OFFSET 2.48547 -0.328903 0.83742
                  }
                }
              }
              JOINT lRing1
              {
                OFFSET 8.82822 0.546677 1.51678
                CHANNELS 3 Zrotation Xrotation Yrotation
                JOINT lRing2
                {
                  OFFSET 2.60934 -0.819778 -0.0198488
                  CHANNELS 3 Zrotation Xrotation Yrotation
                  End Site
                  {
                    OFFSET 2.33842 -0.294052 0.168128
                  }
                }
              }
              JOINT lPinky1
              {
                OFFSET 8.27202 -0.0477905 -0.4584
                CHANNELS 3 Zrotation Xrotation Yrotation
                JOINT lPinky2
                {
                  OFFSET 1.82734 -0.647385 -0.700984
                  CHANNELS 3 Zrotation Xrotation Yrotation
                  End Site
                  {
                    OFFSET 1.69225 -0.51767 -0.607171
                  }
                }
              }
            }
          }
        }
      }
    }
  }
  JOINT rButtock
  {
    OFFSET -8.77824 4.35084 1.2192
    CHANNELS 3 Zrotation Xrotation Yrotation
    JOINT rThigh
    {
      OFFSET 0 -1.70687 -2.19456
      CHANNELS 3 Zrotation Xrotation Yrotation
      JOINT rShin
      {
        OFFSET 0 -36.8199 0.73152
        CHANNELS 3 Zrotation Xrotation Yrotation
        JOINT rFoot
        {
          OFFSET 0.73152 -45.1104 -5.12064
          CHANNELS 3 Zrotation Xrotation Yrotation
          End Site
          {
            OFFSET -1.1221 -3.69964 12.103
          }
        }
      }
    }
  }
  JOINT lButtock
  {
    OFFSET 8.77824 4.35084 1.2192
    CHANNELS 3 Zrotation Xrotation Yrotation
    JOINT lThigh
    {
      OFFSET 0 -1.70687 -2.19456
      CHANNELS 3 Zrotation Xrotation Yrotation
      JOINT lShin
      {
        OFFSET 0 -36.8199 0.73152
        CHANNELS 3 Zrotation Xrotation Yrotation
        JOINT lFoot
        {
          OFFSET -0.73152 -45.1104 -5.12064
          CHANNELS 3 Zrotation Xrotation Yrotation
          End Site
          {
            OFFSET 1.1221 -3.69964 12.103
          }
        }
      }
    }
  }
}
MOTION
Frames:	5
Frame Time:	0.00833333
17.7198 69.9718 -25.7292 -0.27 -29.5611 12.2699 4.43667 54.4403 -9.65909 9.64525 -6.58024 -1.50277 -13.2906 11.1197 -10.463 73.3286 -65.2778 21.8232 -0.0 0.0 0.0 -0.0 0.0 0.0 6.93383e-13 2.68775e-13 -2.75019e-13 67.8813 -12.5352 8.6505 -28.4293 -36.1449 77.2522 -2.15226 -37.8548 -6.27093 -1.8947e-09 -8.72299e-11 -4.2017e-09 -3.14644e-09 -1.57285e-10 -7.30167e-09 -1.8947e-09 -8.72335e-11 -4.20171e-09 7.73091 5.47488 0.417314 -1.89471e-09 -8.72364e-11 -4.20169e-09 2.90554 0.965183 0.102902 -1.8947e-09 -8.72364e-11 -4.20169e-09 10.2786 0.731801 0.0259123 -1.89471e-09 -8.72311e-11 -4.20168e-09 2.22167 -0.733487 -0.20892 6.93335e-13 2.68738e-13 -2.75168e-13 -63.3434 -6.21505 -9.99221 22.7881 -16.9881 -45.9762 4.71365 -50.7742 9.91352 -1.05552e-09 -1.1028e-09 2.07719e-09 -1.89959e-09 -2.04421e-09 3.52987e-09 -1.05552e-09 -1.1028e-09 2.07719e-09 -7.73091 5.47488 -0.417314 -1.05552e-09 -1.1028e-09 2.07718e-09 -2.90554 0.965183 -0.102902 -1.05552e-09 -1.1028e-09 2.07718e-09 -10.2786 0.731801 -0.0259123 -1.05552e-09 -1.10281e-09 2.07717e-09 -2.22167 -0.733487 0.20892 -2.03217e-16 0.0 -3.88251e-19 -58.4528 -57.0912 -50.9415 -0.848093 54.1165 0.829833 -3.73788 -3.66605 -14.9089 2.03217e-16 0.0 3.88251e-19 35.0131 -34.8631 30.9234 1.43424 67.5162 -2.8421 2.93895 -20.2883 2.82702
15.1459 70.0805 -24.2864 -0.0649 -29.7134 11.8504 5.9745 53.7545 -11.0893 9.50531 -6.4229 -1.70673 -13.5608 11.1166 -10.2594 71.3666 -65.312 21.0676 -0.0 0.0 0.0 -0.0 0.0 0.0 5.95272e-13 2.82955e-13 -2.09844e-13 68.3486 -11.2751 8.58337 -28.4378 -35.737 76.5616 -2.00566 -36.808 -6.03407 -1.47045e-09 -1.22178e-10 -2.62418e-09 -2.45709e-09 -2.17597e-10 -4.56765e-09 -1.47045e-09 -1.22181e-10 -2.62419e-09 7.73091 5.47488 0.417314 -1.47045e-09 -1.22183e-10 -2.62417e-09 2.90554 0.965183 0.102902 -1.47045e-09 -1.22183e-10 -2.62417e-09 10.2786 0.731801 0.0259123 -1.47046e-09 -1.22179e-10 -2.62416e-09 2.22167 -0.733487 -0.20892 5.95245e-13 2.82935e-13 -2.10003e-13 -63.7362 -6.07428 -9.57205 22.2609 -16.1496 -44.542 4.26651 -49.1181 9.33531 -3.01346e-10 -4.38969e-10 1.06638e-09 -5.6258e-10 -8.46601e-10 1.81625e-09 -3.01347e-10 -4.38966e-10 1.06638e-09 -7.73091 5.47488 -0.417314 -3.01346e-10 -4.3897e-10 1.06638e-09 -2.90554 0.965183 -0.102902 -3.01349e-10 -4.38971e-10 1.06638e-09 -10.2786 0.731801 -0.0259123 -3.01343e-10 -4.38971e-10 1.06637e-09 -2.22167 -0.733487 0.20892 -2.03217e-16 0.0 -3.88251e-19 -57.5025 -56.7952 -49.9504 -0.720837 51.0225 0.70001 -3.66217 -3.59715 -14.8929 2.03217e-16 0.0 3.88251e-19 34.816 -31.9197 29.4902 1.24234 65.504 -2.615 2.7517 -19.5131 2.26871
12.5169 70.1274 -22.8391 0.1917 -29.9038 11.5785 7.47636 52.7851 -12.486 9.21592 -6.21617 -1.9284 -13.7072 11.2559 -10.0578 69.0431 -65.3844 20.0565 -0.0 0.0 0.0 -0.0 0.0 0.0 3.9956e-13 3.02343e-13 -7.02704e-14 68.7726 -9.99386 8.57139 -28.4218 -35.063 75.5198 -1.83153 -35.463 -5.74136 -6.79622e-10 -1.73638e-10 3.40443e-11 -1.16391e-09 -3.06663e-10 4.05957e-11 -6.79612e-10 -1.73641e-10 3.40292e-11 7.73091 5.47488 0.417314 -6.79622e-10 -1.73641e-10 3.40499e-11 2.90554 0.965183 0.102902 -6.79618e-10 -1.73642e-10 3.40454e-11 10.2786 0.731801 0.0259123 -6.79627e-10 -1.73639e-10 3.4055e-11 2.22167 -0.733487 -0.20892 3.99552e-13 3.02359e-13 -7.04661e-14 -64.2768 -5.87257 -8.93732 21.7709 -15.4193 -43.1859 3.78906 -47.1358 8.69769 7.60966e-10 3.71171e-10 -7.30942e-10 1.33598e-09 6.42848e-10 -1.2411e-09 7.60963e-10 3.7117e-10 -7.30942e-10 -7.73091 5.47488 -0.417314 7.60965e-10 3.71169e-10 -7.30951e-10 -2.90554 0.965183 -0.102902 7.60962e-10 3.71168e-10 -7.30947e-10 -10.2786 0.731801 -0.0259123 7.6097e-10 3.71171e-10 -7.30957e-10 -2.22167 -0.733487 0.20892 -2.03217e-16 0.0 -3.88251e-19 -56.7226 -56.2913 -49.619 -0.627528 48.4027 0.610805 -3.64075 -3.77999 -14.7965 2.03217e-16 0.0 3.88251e-19 34.7307 -28.8754 28.1504 1.07177 63.2642 -2.39361 2.40298 -18.4523 1.35615
9.8131 70.1732 -21.3697 0.4191 -30.0081 11.3541 8.67559 51.6748 -13.696 8.87024 -5.9687 -2.15343 -13.8048 11.4571 -9.86012 66.5358 -65.429 18.8882 -0.0 0.0 0.0 -0.0 0.0 0.0 1.90931e-13 3.22029e-13 7.94416e-14 69.1717 -8.81221 8.70226 -28.3846 -34.225 74.1833 -1.67471 -34.1311 -5.46385 1.02782e-10 -2.15721e-10 2.59732e-09 1.16942e-10 -3.79095e-10 4.48473e-09 1.02792e-10 -2.15723e-10 2.59731e-09 7.73091 5.47488 0.417314 1.02782e-10 -2.15722e-10 2.59732e-09 2.90554 0.965183 0.102902 1.02788e-10 -2.15722e-10 2.59732e-09 10.2786 0.731801 0.0259123 1.02778e-10 -2.15722e-10 2.59733e-09 2.22167 -0.733487 -0.20892 1.90936e-13 3.22083e-13 7.92075e-14 -65.0045 -5.74997 -8.14188 21.3484 -14.8156 -42.0417 3.40369 -45.3126 8.16049 1.73358e-09 1.09592e-09 -2.45143e-09 3.07758e-09 1.98354e-09 -4.16892e-09 1.73358e-09 1.09592e-09 -2.45143e-09 -7.73091 5.47488 -0.417314 1.73358e-09 1.09592e-09 -2.45144e-09 -2.90554 0.965183 -0.102902 1.73358e-09 1.09592e-09 -2.45143e-09 -10.2786 0.731801 -0.0259123 1.73359e-09 1.09592e-09 -2.45144e-09 -2.22167 -0.733487 0.20892 -2.03217e-16 0.0 -3.88251e-19 -56.0464 -55.6904 -49.5617 -0.563443 46.4029 0.550905 -3.59402 -3.88641 -14.6354 2.03217e-16 0.0 3.88251e-19 34.5579 -25.8956 26.7206 0.930454 60.9576 -2.19829 2.04893 -16.8571 0.411645
7.01949 70.278 -19.8588 0.7048 -30.1287 11.0325 9.34533 50.5693 -14.5975 8.56109 -5.68915 -2.3675 -13.9276 11.6397 -9.66878 64.0348 -65.382 17.6729 -0.0 0.0 0.0 -0.0 0.0 0.0 5.4065e-14 3.37102e-13 1.7503e-13 69.5587 -7.85158 9.06164 -28.3377 -33.3202 72.5905 -1.56578 -33.1245 -5.26159 5.01746e-10 -2.22537e-10 3.89003e-09 7.69323e-10 -3.89503e-10 6.7264e-09 5.01756e-10 -2.22538e-10 3.89001e-09 7.73091 5.47488 0.417314 5.01746e-10 -2.22536e-10 3.89003e-09 2.90554 0.965183 0.102902 5.01753e-10 -2.22537e-10 3.89002e-09 10.2786 0.731801 0.0259123 5.01744e-10 -2.22537e-10 3.89003e-09 2.22167 -0.733487 -0.20892 5.4077e-14 3.37175e-13 1.74781e-13 -65.9497 -5.84794 -7.23856 21.0301 -14.3651 -41.2432 3.18194 -44.1381 7.83812 2.21867e-09 1.50358e-09 -3.23171e-09 3.94373e-09 2.73489e-09 -5.49394e-09 2.21866e-09 1.50358e-09 -3.23171e-09 -7.73091 5.47488 -0.417314 2.21866e-09 1.50358e-09 -3.23172e-09 -2.90554 0.965183 -0.102902 2.21866e-09 1.50358e-09 -3.23171e-09 -10.2786 0.731801 -0.0259123 2.21867e-09 1.50359e-09 -3.23172e-09 -2.22167 -0.733487 0.20892 -2.03217e-16 0.0 -3.88251e-19 -55.4221 -55.0946 -49.4044 -0.527796 45.1687 0.512613 -3.44583 -3.58737 -14.4254 2.03217e-16 0.0 3.88251e-19 34.1235 -23.126 25.01 0.815605 58.7455 -2.03887 1.83017 -14.4852 -0.248713
